<svg xmlns="http://www.w3.org/2000/svg" version="1.1" xmlns:xlink="http://www.w3.org/1999/xlink" viewBox="0 0 200 200"><rect width="200" height="200" fill="url('#gradient')"></rect><defs><linearGradient id="gradient" gradientTransform="rotate(45 0.5 0.5)"><stop offset="0%" stop-color="#e8d4de" data-darkreader-inline-stopcolor="" style="--darkreader-inline-stopcolor: var(--darkreader-background-e8d4de, #3b202d);"></stop><stop offset="100%" stop-color="#bdcabc" data-darkreader-inline-stopcolor="" style="--darkreader-inline-stopcolor: var(--darkreader-background-bdcabc, #3a3f41);"></stop></linearGradient></defs><g><g fill="#8f3bd1" transform="matrix(3.6084573218480815,0,0,3.6084573218480815,7.735343469477485,119.75493515704699)" stroke="#4f0c73" stroke-width="0.2" data-darkreader-inline-fill="" data-darkreader-inline-stroke="" style="--darkreader-inline-fill: var(--darkreader-background-8f3bd1, #69259f); --darkreader-inline-stroke: var(--darkreader-text-4f0c73, #ca80f2);"><path d="M8.41-3.78L8.41-3.78Q8.41-4.53 7.88-4.95Q7.34-5.37 6.01-5.82Q4.67-6.27 3.82-6.69L3.82-6.69Q1.05-8.05 1.05-10.42L1.05-10.42Q1.05-11.60 1.74-12.50Q2.43-13.41 3.69-13.91Q4.95-14.41 6.52-14.41L6.52-14.41Q8.06-14.41 9.27-13.87Q10.49-13.32 11.16-12.31Q11.84-11.30 11.84-10L11.84-10L8.42-10Q8.42-10.87 7.89-11.35Q7.35-11.83 6.45-11.83L6.45-11.83Q5.53-11.83 5.00-11.42Q4.46-11.02 4.46-10.39L4.46-10.39Q4.46-9.84 5.05-9.40Q5.63-8.96 7.11-8.48Q8.58-8.01 9.53-7.46L9.53-7.46Q11.84-6.13 11.84-3.80L11.84-3.80Q11.84-1.93 10.43-0.87Q9.02 0.20 6.57 0.20L6.57 0.20Q4.84 0.20 3.44-0.42Q2.04-1.04 1.33-2.12Q0.63-3.20 0.63-4.61L0.63-4.61L4.06-4.61Q4.06-3.47 4.65-2.92Q5.24-2.38 6.57-2.38L6.57-2.38Q7.42-2.38 7.92-2.75Q8.41-3.12 8.41-3.78ZM23.25-5.36L23.25-5.21Q23.25-2.74 22.14-1.27Q21.04 0.20 19.15 0.20L19.15 0.20Q17.70 0.20 16.76-0.87L16.76-0.87L16.76 4.06L13.47 4.06L13.47-10.57L16.54-10.57L16.64-9.59Q17.59-10.76 19.13-10.76L19.13-10.76Q21.08-10.76 22.17-9.32Q23.25-7.88 23.25-5.36L23.25-5.36ZM19.96-5.06L19.96-5.41Q19.96-8.22 18.32-8.22L18.32-8.22Q17.15-8.22 16.76-7.38L16.76-7.38L16.76-3.22Q17.19-2.34 18.34-2.34L18.34-2.34Q19.91-2.34 19.96-5.06L19.96-5.06ZM28.17-10.57L28.17 0L24.87 0L24.87-10.57L28.17-10.57ZM24.68-13.29L24.68-13.29Q24.68-13.99 25.19-14.44Q25.69-14.89 26.50-14.89Q27.31-14.89 27.82-14.44Q28.33-13.99 28.33-13.29Q28.33-12.59 27.82-12.14Q27.31-11.69 26.50-11.69Q25.69-11.69 25.19-12.14Q24.68-12.59 24.68-13.29ZM36.75 0L34.44-3.94L33.52-3.01L33.52 0L30.22 0L30.22-15.01L33.52-15.01L33.52-7.04L33.85-7.48L36.33-10.57L40.27-10.57L36.57-6.22L40.52 0L36.75 0ZM46.05 0.20L46.05 0.20Q43.62 0.20 42.12-1.25Q40.62-2.71 40.62-5.03L40.62-5.03L40.62-5.30Q40.62-6.92 41.22-8.16Q41.82-9.40 42.97-10.08Q44.12-10.76 45.70-10.76L45.70-10.76Q47.93-10.76 49.22-9.38Q50.51-8.00 50.51-5.53L50.51-5.53L50.51-4.25L43.96-4.25Q44.14-3.36 44.74-2.85Q45.33-2.34 46.28-2.34L46.28-2.34Q47.84-2.34 48.72-3.44L48.72-3.44L50.22-1.66Q49.61-0.81 48.48-0.31Q47.35 0.20 46.05 0.20ZM45.68-8.22L45.68-8.22Q44.24-8.22 43.96-6.31L43.96-6.31L47.29-6.31L47.29-6.56Q47.30-7.35 46.88-7.79Q46.46-8.22 45.68-8.22Z"></path></g></g></svg>